<?xml version="1.0" encoding="utf-8" ?><svg xmlns="http://www.w3.org/2000/svg" xmlns:xlink="http://www.w3.org/1999/xlink" width="1024" height="1024" viewBox="0 0 1024 1024"><path fill="#7A5C2E" d="M265.45 221.262C292.144 219.673 329.095 225.204 354.856 232.639C400.828 245.906 448.104 271.366 481.148 306.481C493.929 320.062 503.669 334.534 512.683 350.668C514.933 346.47 517.263 341.905 519.806 337.876C569.207 259.609 670.206 218.76 760.413 221.492C779.563 222.072 798.792 225.928 812.793 239.769C827.535 254.343 827.796 268.578 827.787 287.876C848.003 296.959 877.727 305.414 887.242 326.909C889.18 331.288 890.859 337.039 890.957 341.808C891.407 363.598 891.326 385.694 891.334 407.481L891.361 529.503L891.252 675.931C891.204 698.289 891.46 721.001 891.25 743.011C891.039 765.124 872.365 782.717 850.288 779.741C840.716 778.451 834.019 774.12 825.406 770.101C819.023 767.123 812.515 764.575 806.016 762.009L805.571 761.836C729.409 732.862 644.59 737.14 571.73 773.629C561.756 778.634 552.157 784.353 543.006 790.74C527.978 801.295 516.385 816.594 497.561 802.628C491.617 798.217 485.413 793.23 479.327 789.147C463.438 778.652 446.488 769.859 428.758 762.914C355.852 734.489 276.362 736.268 204.86 767.638C198.077 770.613 191.578 774.298 184.826 777.222C176.027 781.086 166.038 781.212 157.145 777.572C143.242 771.873 134.657 758.424 134.525 743.518C134.329 721.528 134.494 699.525 134.502 677.532L134.521 545.86L134.477 411.921C134.469 389.322 134.295 366.7 134.567 344.106C134.984 309.417 171.664 298.863 197.994 288.05C197.844 270.714 197.589 257.074 209.936 243.172C225.002 226.208 244.171 222.795 265.45 221.262ZM525.767 740.478C537.963 724.355 544.206 717.03 559.842 703.548C610.447 662.58 675.295 643.476 740.027 650.466C751.927 651.664 763.837 653.624 775.385 656.746C782.135 658.57 789.799 660.583 795.885 655.808C803.929 649.474 801.895 637.788 801.84 628.627C801.763 618.405 801.746 608.183 801.787 597.96L801.872 484.141L801.88 345.681L801.814 299.831C801.771 287.291 803.793 267.837 795.047 258.261C784.783 247.022 755.936 245.497 741.263 246.706C673.112 250.551 605.197 277.191 558.163 328.286C543.284 344.449 530.862 369.203 526.978 390.924C524.672 403.824 525.531 428.678 525.539 442.648L525.587 530.116L525.586 676.971L525.645 715.15C525.606 721.866 525.23 731.754 525.61 738.262C525.653 739.001 525.706 739.74 525.767 740.478ZM827.533 315.581L827.899 547.07L827.75 613.77C827.747 617.018 827.773 620.291 827.739 623.537C827.543 642.325 830.167 657.669 815.89 672.319C808.233 680.215 797.717 684.694 786.718 684.744C778.001 684.771 770.03 681.903 761.579 680.028C695.581 665.384 618.163 682.582 568.61 729.777C560.842 737.176 550.824 749.401 545.487 758.459C560.388 750.844 574.763 742.968 590.618 737.514C659.43 713.099 729.086 709.239 798.957 732.425C810.26 736.171 821.385 740.435 832.297 745.203C838.599 747.989 848.228 753.057 854.332 754.905C858.654 753.66 860.039 753.205 863.564 750.125C866.267 742.702 865.075 705.168 865.057 694.319L864.951 597L865.035 437.634C865.039 408.201 865.099 378.67 864.753 349.235C864.717 346.166 864.182 339.369 863.055 336.773C859.593 328.799 835.76 318.087 827.533 315.581ZM472.998 709.837C484.616 721.21 489.395 727.268 499.455 739.943C500.115 731.065 499.819 719.641 499.821 710.588L499.672 659.351L499.657 535.524L499.749 452.64C499.845 434.208 501.026 407.585 497.695 389.917C480.422 298.318 356.395 243.788 271.369 246.71C257.296 247.57 239.675 248.218 229.69 259.812C221.503 269.319 223.636 283.576 223.638 295.512L223.619 335.394L223.643 464.558L223.606 588.179L223.671 627.025C223.684 633.28 223.596 639.561 223.803 645.809C223.917 649.239 226.588 653.517 229.219 655.651C237.559 662.415 248.417 657.04 257.461 655.094C266.933 653.057 276.434 651.424 286.066 650.417C343.338 644.44 407.539 660.241 454.223 694.288C460.411 698.801 467.319 704.644 472.998 709.837ZM197.424 315.647C190.986 318.001 184.662 321.011 178.519 324.027C166.487 329.934 160.025 333.958 160 348.495C159.949 377.208 160.009 405.843 160.026 434.518L160.035 600.424L159.963 694.414C159.954 710.56 159.896 726.807 160.095 742.835C160.217 752.677 168.44 756.813 176.547 752.833C261.619 711.067 345.835 705.257 436.914 738.479C450.401 743.8 467.533 751.464 479.962 759.02C457.482 720.191 412.979 694.159 370.482 682.933C344.837 676.244 318.266 673.825 291.834 675.771C283.715 676.355 275.644 677.49 267.679 679.168C260.262 680.796 252.948 683.076 245.357 684.318C222.092 688.122 200.156 671.136 198.235 647.608C197.437 637.84 197.856 626.942 197.84 616.966L197.777 560.928L197.754 377.547L197.86 334.767C197.863 331.317 198.014 318.129 197.424 315.647Z"/></svg>