<?xml version="1.0" encoding="utf-8" ?><svg xmlns="http://www.w3.org/2000/svg" xmlns:xlink="http://www.w3.org/1999/xlink" width="1112" height="919" viewBox="0 0 1112 919"><clipPath id="cl_8"><rect x="-0.00091552734" width="1111.7112" height="918.54639"/></clipPath><g clip-path="url(#cl_8)"><path fill="#7A5C2E" transform="matrix(1.3508 0 0 1.3508 -133.73 -272.862)" d="M815.481 219.122C825.388 218.829 826.339 227.06 826.238 234.797C826.128 243.255 826.166 251.833 826.27 260.29C830.079 260.52 836.502 260.165 840.54 260.131L869.898 260.008C874.262 260.001 881.512 259.652 885.459 260.432C895.225 262.495 893.207 276.827 883.052 277.431C864.289 278.548 845.299 277.371 826.518 277.906C825.812 285.138 826.27 302.016 826.26 309.898L826.218 374.018L864.235 373.932C870.957 373.914 877.513 373.728 884.33 374.204C891.711 374.332 893.572 383.591 889.441 388.32C885.922 392.348 872.319 390.827 867.168 390.942C853.653 391.245 839.899 390.361 826.44 391.025C825.595 403.831 825.924 421.872 826.186 434.783C826.731 461.627 822.718 470.239 801.289 487.41C806.487 488.177 818.185 487.927 823.823 487.934L866.12 487.822C872.281 487.794 878.597 487.566 884.718 488.103C888.81 488.354 892.119 493.359 891.766 497.169C891.37 501.449 888.123 505.589 883.641 505.69C875.011 505.886 866.361 505.828 857.786 505.825L807.085 505.796C761.408 505.775 713.982 506.471 668.434 505.677C667.693 508.804 666.908 512.162 665.76 515.15C655.8 541.064 627.344 556.804 600.247 556.131C586.441 556.061 574.31 552.452 564.606 542.192C553.938 530.913 552.721 520.681 553.039 505.929C548.407 505.632 543.606 505.644 538.957 505.705C508.976 506.101 478.719 505.172 448.765 505.951C448.49 510.312 448.601 515.294 448.689 519.718C449.227 546.599 448.151 573.754 448.643 600.599C456.8 601.308 472.61 600.839 481.462 600.842L545.949 600.89L778.386 600.949L848.868 600.921C859.381 600.906 870.095 600.841 880.626 600.755C883.022 600.736 886.344 601.709 888.263 603.285C890.042 604.741 891.139 606.866 891.297 609.159C891.451 611.739 890.511 614.264 888.707 616.115C886.427 618.42 883.308 618.685 880.163 618.737C866.645 618.959 852.941 618.849 839.424 618.863L757.809 618.884L553.988 618.868C519.271 618.879 483.335 618.361 448.745 619.025C448.693 635.401 449.073 651.62 448.944 668.231C448.83 683.056 443.778 691.981 433.524 702.787C431.004 705.442 426.355 708.482 423.26 711.485L422.846 711.894C432.44 712.862 448.433 712.509 458.334 712.508L516.102 712.464L745.096 712.458L831.613 712.434C847.591 712.423 863.564 712.373 879.547 712.471C884.742 712.504 889.359 712.879 890.746 718.834C891.357 720.729 890.605 726.224 889.237 727.601C884.591 732.278 869.24 730.686 863.252 730.648L833.023 730.645L727.852 730.651L439.524 730.673L343.641 730.685C326.332 730.692 307.106 730.297 289.992 730.916C275.524 789.176 175.104 799.494 176.015 730.918C165.541 729.792 153.574 731.245 142.978 730.769C138.287 730.558 130.128 731.794 126.547 728.378C121.957 724.001 122.977 713.874 130.347 712.859C136.618 711.996 143.062 712.294 149.408 712.302C160.948 712.307 172.487 712.377 184.026 712.511C199.948 695.325 212.443 685.208 236.877 682.094C252.003 680.958 257.305 681.618 270.722 688.083C271.438 666.006 270.639 641.397 270.836 618.916L176.578 618.933L148.667 618.917C143.354 618.92 130.865 619.92 126.578 616.787C123.243 614.35 123.109 605.031 126.467 603.009C132.214 599.546 144.662 600.943 151.501 600.911L195.097 600.859L242.551 600.758C251.447 600.733 261.841 600.475 270.61 600.859C271.046 593.171 270.477 582.608 270.564 574.54C270.812 551.73 270.067 528.457 270.821 505.688C239.213 506.462 205.236 505.793 173.39 505.745L146.82 505.729C143.049 505.729 134.225 506.18 131.079 505.226C121.849 502.425 122.69 492.649 130.243 488.075C142.058 487.204 164.305 487.901 176.83 487.917L266.236 487.921L291.946 487.932C295.989 487.931 306.315 488.137 309.715 487.249C320.261 484.494 331.785 479.996 342.157 476.429L410.28 453.045C419.582 449.864 429.411 445.963 439.051 444.461C442.854 443.869 447.545 449.056 448.085 452.484C449.851 463.698 448.441 476.366 448.77 487.646C485.573 488.524 525.25 487.926 562.21 487.86C575.985 469.489 596.645 459.256 619.644 457.951C630.851 457.315 637.756 460.167 647.865 464.555C648.256 456.574 648.018 446.556 648.021 438.478L647.988 391.166C631.81 390.394 611.946 390.689 595.572 390.666L507.858 390.647L243.372 390.642L166.381 390.674C155.243 390.697 143.944 391.065 132.907 390.936C121.727 390.806 121.396 373.356 134.636 373.915C138.985 374.099 145.565 373.991 150.005 374.007L182.88 373.991L290.807 373.945L647.983 373.928C648.562 349.024 647.597 323.778 647.965 298.847C648.06 292.411 647.319 283.614 649.041 277.613C639.047 277.264 626.876 277.638 616.749 277.683L556.631 277.872L262.464 277.85L172.687 277.708C160.527 277.694 148.355 277.877 136.206 277.847C129.259 277.829 126.426 276.633 124.766 269.563C123.422 264.217 128.365 260.703 133.221 260.4C141.861 259.859 150.92 260.524 159.603 260.502L228.798 260.298L549.094 260.241C581.233 260.397 613.373 260.366 645.512 260.147L675.152 260.282C696.811 260.286 696.143 258.682 716.885 251.945L783.992 229.516C791.604 226.943 809.017 220.385 815.481 219.122ZM666.112 286.688C666.113 293.96 665.674 347.239 666.625 349.359L667.663 349.505C696.221 340.662 727.44 329.424 756.11 319.736C766.123 316.309 776.162 312.957 786.225 309.678C792.872 307.526 801.708 304.913 808.008 302.371C808.002 295.917 808.358 241.201 807.465 239.607L806.136 239.522C797.034 241.922 785.395 246.279 776.213 249.324L696.251 276.315C686.675 279.534 675.466 284.014 666.112 286.688ZM289.552 512.338C289.559 518.33 289.285 573.395 290.054 574.811L290.116 574.863C296.438 573.369 303.103 570.916 309.323 568.861L348.904 555.407C366.191 549.705 383.434 543.87 400.63 537.9C408.664 535.185 422.646 530.992 430.033 527.619L430.07 482.904C430.075 479.953 430.443 466.794 430.193 464.837L429.897 464.608C400.742 473.065 366.918 485.642 337.829 495.663L308.066 505.622C302.159 507.591 295.097 509.743 289.552 512.338ZM429.133 546.121L326.696 580.731C314.534 584.882 301.566 588.87 289.618 593.288C289.667 595.442 289.402 598.991 290.338 600.629L290.762 600.831C336.92 600.434 383.31 601.305 429.431 600.742C429.933 590.234 429.666 578.699 429.747 568.098C429.79 562.42 430.035 551.664 429.402 546.391L429.133 546.121ZM289.517 712.1C303.219 712.26 316.922 712.3 330.625 712.219L349.312 712.233C346.85 709.3 343.768 706.176 341.576 703.229C337.234 697.388 335.343 687.059 336.129 679.868C339.87 645.648 378.155 623.039 410.49 626.295C417.272 626.978 423.056 628.681 429.309 630.979C429.508 626.727 429.574 623.226 429.486 618.973C422.328 618.733 414.361 618.498 407.201 618.761C381.459 618.938 355.717 618.965 329.974 618.841C316.75 618.833 302.648 618.596 289.483 619.024L289.517 712.1ZM388.573 706.094C407.648 703.825 434.848 687.383 431.705 665.182C430.86 658.96 427.443 653.379 422.287 649.797C415.796 645.286 405.556 643.34 397.78 644.186C382.823 645.904 369.642 652.413 359.986 664.122C350.962 675.064 349.914 690.775 362.316 699.837C370.606 705.895 378.602 706.551 388.573 706.094ZM807.433 320.165L705.634 354.738C697.222 357.673 688.791 360.555 680.343 363.384C676.545 364.665 669.331 366.87 665.932 368.522C665.936 370.146 665.757 372.335 666.42 373.708L667.391 373.991L758.165 373.92C774.137 373.908 792.016 374.311 807.798 373.734C808.014 368.374 808.407 321.92 807.433 320.165ZM239.561 699.705C225.651 700.886 210.04 707.836 201.31 718.758C182.617 742.141 199.736 763.287 226.096 761.898C246.643 760.221 272.905 746.105 271.946 721.82C271.333 706.314 253.358 699.168 239.561 699.705ZM765.914 481.972C779.676 480.292 794.351 473.374 802.763 462.221C820.135 439.186 801.366 417.652 775.79 420.182C765.654 421.424 759.679 423.533 750.49 428.943C734.38 438.427 721.464 462.184 740.2 476.372C747.584 481.963 756.713 482.146 765.914 481.972ZM605.864 537.799C620.893 535.86 634.082 529.708 643.59 517.563C648.037 511.884 650.767 504.812 649.757 497.504C648.958 491.292 645.616 485.691 640.528 482.039C634.403 477.63 624.845 475.352 617.36 476.194C564.102 482.354 554.387 540.061 605.864 537.799ZM733.207 420.067C748.693 406.925 768.755 400.455 789.001 402.073C796.214 402.695 800.997 404.631 807.691 407.076C808.126 401.723 808.007 396.494 807.974 391.129C766.982 390.144 725.46 391.477 684.429 390.908C678.576 390.827 672.252 390.816 666.423 391.016C665.201 418.1 666.741 446.281 666.079 473.451C665.97 477.904 666.001 483.282 666.293 487.699C683.707 488.459 707.023 487.959 724.752 487.741C720.175 482.092 717.177 478.417 714.98 471.338C708.565 450.667 717.515 433.456 733.207 420.067Z"/><path fill="#7A5C2E" transform="matrix(1.3508 0 0 1.3508 -133.73 -272.862)" d="M388.573 706.094C407.648 703.825 434.848 687.383 431.705 665.182C430.86 658.96 427.443 653.379 422.287 649.797C415.796 645.286 405.556 643.34 397.78 644.186C382.823 645.904 369.642 652.413 359.986 664.122C350.962 675.064 349.914 690.775 362.316 699.837C370.606 705.895 378.602 706.551 388.573 706.094Z"/><path fill="#7A5C2E" transform="matrix(1.3508 0 0 1.3508 -133.73 -272.862)" d="M239.561 699.705C225.651 700.886 210.04 707.836 201.31 718.758C182.617 742.141 199.736 763.287 226.096 761.898C246.643 760.221 272.905 746.105 271.946 721.82C271.333 706.314 253.358 699.168 239.561 699.705Z"/><path fill="#7A5C2E" transform="matrix(1.3508 0 0 1.3508 -133.73 -272.862)" d="M765.914 481.972C779.676 480.292 794.351 473.374 802.763 462.221C820.135 439.186 801.366 417.652 775.79 420.182C765.654 421.424 759.679 423.533 750.49 428.943C734.38 438.427 721.464 462.184 740.2 476.372C747.584 481.963 756.713 482.146 765.914 481.972Z"/><path fill="#7A5C2E" transform="matrix(1.3508 0 0 1.3508 -133.73 -272.862)" d="M605.864 537.799C620.893 535.86 634.082 529.708 643.59 517.563C648.037 511.884 650.767 504.812 649.757 497.504C648.958 491.292 645.616 485.691 640.528 482.039C634.403 477.63 624.845 475.352 617.36 476.194C564.102 482.354 554.387 540.061 605.864 537.799Z"/></g></svg>