<svg xmlns="http://www.w3.org/2000/svg" viewBox="0 0 48 48" fill="none">
  <!-- Trophy cup -->
  <path d="M14 8H34V24C34 30.6 29.5 36 24 36C18.5 36 14 30.6 14 24V8Z" stroke="#7A5C2E" stroke-width="2" stroke-linecap="round" stroke-linejoin="round"/>
  <!-- Left handle -->
  <path d="M14 12C10 12 7 14.5 7 18C7 21.5 10 24 14 24" stroke="#7A5C2E" stroke-width="2" stroke-linecap="round" fill="none"/>
  <!-- Right handle -->
  <path d="M34 12C38 12 41 14.5 41 18C41 21.5 38 24 34 24" stroke="#7A5C2E" stroke-width="2" stroke-linecap="round" fill="none"/>
  <!-- Stem -->
  <line x1="24" y1="36" x2="24" y2="42" stroke="#7A5C2E" stroke-width="2.5"/>
  <!-- Base -->
  <line x1="16" y1="42" x2="32" y2="42" stroke="#7A5C2E" stroke-width="2.5" stroke-linecap="round"/>
  <!-- Star inside cup -->
  <path d="M24 14L25.4 18.5H30L26.4 21.2L27.8 25.8L24 23.1L20.2 25.8L21.6 21.2L18 18.5H22.6L24 14Z" fill="#7A5C2E" fill-opacity="0.35" stroke="#7A5C2E" stroke-width="1" stroke-linecap="round" stroke-linejoin="round"/>
</svg>
