<svg xmlns="http://www.w3.org/2000/svg" viewBox="0 0 48 48" fill="none">
  <!-- Page with dog-ear corner -->
  <path d="M10 4H30L40 14V44H10V4Z" stroke="#7A5C2E" stroke-width="2" stroke-linecap="round" stroke-linejoin="round"/>
  <path d="M30 4L40 14H30V4Z" stroke="#7A5C2E" stroke-width="1.5" stroke-linejoin="round"/>
  <!-- Staff lines on page -->
  <line x1="14" y1="22" x2="36" y2="22" stroke="#7A5C2E" stroke-width="1.5"/>
  <line x1="14" y1="26" x2="36" y2="26" stroke="#7A5C2E" stroke-width="1.5"/>
  <line x1="14" y1="30" x2="36" y2="30" stroke="#7A5C2E" stroke-width="1.5"/>
  <!-- Music note on staff -->
  <ellipse cx="27" cy="24" rx="4.5" ry="3" transform="rotate(-15 27 24)" fill="#7A5C2E"/>
  <line x1="31" y1="21.5" x2="31" y2="13" stroke="#7A5C2E" stroke-width="2" stroke-linecap="round"/>
  <!-- Eighth-note flag -->
  <path d="M31 13C34.5 14.5 35.5 17 33 19" stroke="#7A5C2E" stroke-width="1.5" stroke-linecap="round"/>
  <!-- Simplified treble-clef hint on left -->
  <path d="M16 30C14 28 14 23 16 21C17.5 19.5 19.5 19.5 19.5 22C19.5 24 17 26 16 30" stroke="#7A5C2E" stroke-width="1.5" stroke-linecap="round" fill="none"/>
</svg>
