<svg xmlns="http://www.w3.org/2000/svg" viewBox="0 0 48 48" fill="none">
  <!-- Object being dragged (dashed border = grabbed state) -->
  <rect x="14" y="14" width="20" height="20" rx="3" stroke="#7A5C2E" stroke-width="2" stroke-dasharray="4 2"/>
  <!-- Music note inside -->
  <ellipse cx="21" cy="27" rx="4" ry="3" transform="rotate(-15 21 27)" fill="#7A5C2E" opacity="0.7"/>
  <line x1="24.8" y1="24.8" x2="24.8" y2="18" stroke="#7A5C2E" stroke-width="1.5" stroke-linecap="round"/>
  <!-- Four-directional arrows -->
  <path d="M24 4L21 9H27L24 4Z"  fill="#7A5C2E"/>
  <path d="M24 44L21 39H27L24 44Z" fill="#7A5C2E"/>
  <path d="M4 24L9 21V27L4 24Z"  fill="#7A5C2E"/>
  <path d="M44 24L39 21V27L44 24Z" fill="#7A5C2E"/>
  <line x1="24" y1="4"  x2="24" y2="14" stroke="#7A5C2E" stroke-width="2"/>
  <line x1="24" y1="34" x2="24" y2="44" stroke="#7A5C2E" stroke-width="2"/>
  <line x1="4"  y1="24" x2="14" y2="24" stroke="#7A5C2E" stroke-width="2"/>
  <line x1="34" y1="24" x2="44" y2="24" stroke="#7A5C2E" stroke-width="2"/>
</svg>
