<?xml version="1.0" encoding="utf-8" ?><svg xmlns="http://www.w3.org/2000/svg" xmlns:xlink="http://www.w3.org/1999/xlink" width="1024" height="1024" viewBox="0 0 1024 1024"><path fill="#7A5C2E" d="M621.807 129.631C640.443 128.173 642.826 145.922 648.849 158.921C655.497 173.269 664.683 182.437 677.565 191.266C690.489 200.124 704.402 203.239 718.351 209.324C763.272 228.922 795.007 272.902 798.014 322.063C798.408 331.878 800.633 344.865 793.321 352.658C786.464 359.967 774.093 360.165 767.285 352.63C760.421 345.033 761.947 340.26 761.869 331.464C761.548 295.678 741.595 261.537 709.233 245.605C701.512 241.802 693.339 239.478 685.261 236.618C667.595 229.917 655.241 222.074 642.025 208.808C642.493 230.779 642.021 253.499 642.018 275.57C642.194 332.606 642.051 389.642 641.588 446.675L641.542 531.127C641.557 549.223 642.969 567.683 640.049 585.448C636.48 607.162 628.8 625.157 616.113 643.029C614.767 644.914 613.355 646.75 611.879 648.535C568.657 700.48 492.997 709.391 438.065 671.566C403.894 648.037 383.623 612.708 380.349 571.495C377.594 537.826 388.337 504.443 410.212 478.7C433.422 451.839 466.391 435.351 501.805 432.891C545.256 429.541 574.574 445.499 606.031 472.476C606.481 467.638 606.007 457.028 606.002 451.492L606 405.671L606.026 228.096L605.989 175.158C605.952 165.72 605.726 156.191 606.089 146.772C606.442 137.621 613.144 131.338 621.807 129.631ZM514.755 657.071C566.526 655.324 607.143 612.053 605.613 560.275C604.084 508.498 560.984 467.699 509.2 469.011C457.108 470.33 416.012 513.744 417.551 565.83C419.089 617.917 462.675 658.829 514.755 657.071Z"/><path fill="#7A5C2E" d="M489.461 153.791C492.927 153.59 496.423 153.494 499.874 153.297C510.868 152.67 520.238 160.048 519.739 171.676C519.314 180.058 513.453 187.174 505.307 189.196C503.172 189.742 499.409 189.795 497.118 189.825C481.128 190.038 465.227 192.769 449.561 195.894C382.057 209.416 319.861 242.052 270.378 289.917C184.251 371.583 142.71 505.743 180.761 619.944C182.503 625.174 184.331 630.381 186.247 635.55C191.111 649.05 196.996 662.161 203.852 674.767C211.84 689.308 226.234 703.282 209.503 717.747C190.07 729.665 179.076 703.875 171.819 690.322C99.2072 554.66 128.734 389.154 232.051 277.914C296.758 208.245 393.528 158.083 489.461 153.791Z"/><path fill="#7A5C2E" d="M496.406 245.235C499.937 245.1 504.169 244.994 507.521 246.07C512.214 247.537 516.093 250.877 518.24 255.3C520.297 259.486 520.611 263.938 519.099 268.359C517.192 273.942 512.878 278.373 507.348 280.429C502.264 282.32 487.663 281.684 480.632 282.604C452.074 286.343 426.235 293.462 400.109 305.714C337.7 335.166 289.496 388.135 266.039 453.034C248.048 503.02 248.082 557.72 266.136 607.683C269.528 616.96 273.822 624.95 278.094 633.81C283.763 645.569 278.393 654.807 267.39 659.718C249.383 663.467 245.592 649.845 239.844 636.978C193.877 534.076 219.237 421.75 293.544 340.046C346.078 283.012 418.954 248.952 496.406 245.235Z"/><path fill="#7A5C2E" d="M279.795 774.117C291.153 773.327 295.649 778.095 304.163 784.598C308.731 788.086 313.536 792.05 318.305 795.181C351.303 816.845 389.962 834.484 428.362 843.769C510.566 864.309 597.457 853.804 672.397 814.265C688.01 806.089 705.751 795.895 719.363 784.271C730.487 774.771 742.355 767.938 754.817 780.844C757.809 783.942 759.444 791.429 758.821 795.537C757.807 803.048 752.404 807.048 746.724 811.288C709.263 839.146 667.272 860.324 622.602 873.889C526.183 903.086 422.139 893.071 333.06 846.018C316.464 837.146 300.484 827.169 285.227 816.153C278.737 811.56 267.863 805.094 265.886 796.922C263.102 785.407 268.535 777.253 279.795 774.117Z"/><path fill="#7A5C2E" d="M353.221 701.669C365.873 701.255 366.588 707.766 374.993 713.726C387.188 722.214 400.12 729.592 413.632 735.771C488.536 769.895 574.17 763.333 642.814 717.398C647.738 714.102 652.011 709.989 656.581 706.235C665.126 699.216 678.298 700.792 684.646 709.94C687.702 714.313 688.833 719.747 687.776 724.976C685.974 733.73 680.909 736.111 674.247 740.619C642.086 766.125 597.363 783.374 557.578 790.087C485.431 802.261 411.777 785.934 352.965 742.216C346.204 737.054 337.253 731.929 336.097 722.648C334.686 711.318 342.248 703.112 353.221 701.669Z"/><path fill="#7A5C2E" d="M841.106 373.633C862.656 370.787 869.321 400.1 874.702 416.418C904.004 505.008 897.142 601.584 855.609 685.141C850.287 695.701 840.184 717.246 828.933 720.965C813.985 722.347 804.919 712.56 808.699 697.325C810.032 691.955 815.559 683.51 818.345 678.515C821.771 672.389 824.964 666.135 827.917 659.767C862.051 586.87 867.273 508.383 841.898 432.182C837.903 420.186 832.227 408.709 828.644 396.7C825.129 384.921 830.076 377.651 841.106 373.633Z"/><path fill="#7A5C2E" d="M496.956 336.705C501.083 336.456 503.374 336.221 507.398 337.714C512.226 339.461 516.116 343.126 518.148 347.84C520.154 352.565 519.935 357.007 518.059 361.743C512.778 375.082 499.065 372.364 487.166 374.314C473.024 376.586 459.191 380.478 445.94 385.915C390.235 408.228 350.661 458.559 342.119 517.955C341.362 523.04 340.849 528.127 340.327 533.237C338.669 549.459 344.744 564.428 325.477 571.711C296.852 575.389 301.694 542.744 303.523 524.794C307.509 482.154 324.579 441.789 352.397 409.227C389.089 366.878 441.072 340.799 496.956 336.705Z"/><path fill="#7A5C2E" d="M768.206 418.071C772.385 417.821 776.557 417.858 780.391 419.995C789.44 425.038 794.693 444.437 797.677 454.351C816.892 518.2 811.924 588.426 781.152 647.847C777.88 654.165 774.327 658.028 767.442 660.047C756.327 661.237 745.101 655.083 744.779 643.552C744.549 635.294 753.178 620.603 756.57 612.295C774.178 568.276 777.412 519.816 765.809 473.847C763.135 463.113 759.399 452.996 755.615 442.607C751.247 430.615 756.148 421.875 768.206 418.071Z"/></svg>