<?xml version="1.0" encoding="utf-8" ?><svg xmlns="http://www.w3.org/2000/svg" xmlns:xlink="http://www.w3.org/1999/xlink" width="1024" height="1024" viewBox="0 0 1024 1024"><path fill="#7A5C2E" d="M544.816 105.247C579.09 102.946 604.58 124.811 610.586 158.08C635.842 161.729 658.976 178.89 667.63 203.46C672.603 217.582 675.988 233.86 679.691 248.508L700.745 332.359L764.701 585.494L802.433 734.831L812.443 774.693C814.481 782.73 817.418 793.11 818.478 801.133C820.491 816.358 815.514 833.901 806 845.996C795.552 859.539 780.059 868.265 763.062 870.178C753.87 871.215 740.003 870.878 730.408 870.894C712.241 870.94 694.074 870.885 675.907 870.731L535.596 870.633L398.561 870.874L359.303 870.702C338.934 870.579 321.611 871.258 304.59 857.394C289.244 844.895 282.164 830.425 280.096 810.884C279.836 796.342 285.158 780.514 288.817 766.188L301.561 716.311L345.111 543.465C341.148 540.89 334.741 537.503 330.536 535.127L294.812 515.401C283.295 509.049 263.405 497.06 251.915 492.095C248.925 497.048 246.052 502.693 240.531 505.011C236.467 506.674 229.563 506.544 225.678 504.55C210.232 496.62 195.248 487.747 180.015 479.411C174.653 476.476 168.793 472.95 164.608 468.393C152.74 455.47 150.377 433.483 157.436 417.743C162.643 406.239 172.243 397.301 184.089 392.93C194.689 388.888 206.468 389.278 216.776 394.011C225.805 398.19 238.936 407.227 248.244 412.212C255.081 416.479 262.549 419.869 269.033 424.661C283.711 435.509 273.807 450.06 267.939 461.84C286.624 473.173 306.74 483.455 325.778 494.341C334.793 499.496 345.963 504.24 354.36 510.051C355.456 506.982 356.383 503.87 357.26 500.733C362.837 480.778 367.308 460.475 372.543 440.435L417.367 263.358C420.549 251.06 423.645 238.74 426.653 226.399C428.705 217.905 430.571 208.585 433.421 200.366C441.678 176.55 464.39 161.31 488.705 157.659C494.814 127.197 513.592 108.832 544.816 105.247ZM385.608 526.664C411.741 542.198 438.788 556.609 465.215 571.64C472.381 575.716 479.739 579.524 486.798 583.758C492.863 572.617 498.507 560.874 504.227 549.549C510.405 537.316 519.701 532.648 532.36 539.608C548.954 548.732 565.603 558.137 582.096 567.482C590.863 572.415 593.427 581.295 589.702 590.454C584.002 604.447 576.22 617.698 570.717 631.745C576.37 635.285 593.781 644.272 597.061 647.554C599.161 649.687 600.619 652.367 601.27 655.289C602.301 659.926 601.336 664.784 598.611 668.676C595.942 672.538 591.78 675.111 587.131 675.771C578.582 676.931 562.582 666.788 554.314 662.385C549.39 671.834 544.6 681.353 539.947 690.939C534.087 702.886 528.515 722.132 511.136 715.966C508.1 714.889 505.852 713.638 503.03 712.091C487.847 703.76 472.7 695.438 457.547 687.042C452.47 684.229 448.824 681.321 447.124 675.43C445.561 670.017 447.137 665.431 449.395 660.484C451.811 655.191 454.507 649.921 457.101 644.678L472.339 613.662C450.305 601.973 428.447 589.956 406.772 577.615C396.436 571.779 385.901 566.285 375.733 560.223C365.559 599.719 355.623 639.276 345.925 678.891C341.821 693.395 338.89 706.737 335.312 721.297L323.875 766.334C320.656 779.36 316.261 793.614 314.31 806.741C313.636 811.279 315.624 818.256 317.918 822.402C321.54 828.944 327.617 833.777 334.807 835.833C342.661 838.082 380.964 837.14 391.506 837.12L488.191 837.128L663.228 837.134L721.964 837.194C733.36 837.202 744.703 837.233 756.089 836.992C775.462 836.583 787.668 819.643 783.812 801.07C779.574 780.657 773.727 760.74 768.777 740.547C759.724 703.612 750.18 666.84 741.22 629.888C740.427 626.618 739.436 622.728 738.286 619.583C687.997 606.472 654.851 580.159 628.47 535.014C600.153 486.555 582.961 433.618 568.35 379.716C555.894 333.767 541.948 274.463 583.28 238.387C600.106 223.613 614.542 218.35 636.276 214.888C626.176 187.474 600.423 190.976 576.919 191.257C557.538 191.434 538.156 191.495 518.774 191.44C502.525 191.405 485.266 187.992 472.9 200.39C469.154 204.092 466.334 208.625 464.668 213.621C461.432 223.256 457.986 239.844 455.341 250.242L434.549 332.711L402.864 458.503C397.331 480.345 390.528 504.931 385.608 526.664ZM696.995 564.75C704.893 570.856 719.21 579.321 728.877 581.728C727.769 575.837 726.037 570.295 724.552 564.492L717.413 535.995L690.02 428.866L658.596 304.972C653.79 286.262 649.72 266.775 644.022 248.369C642.749 248.425 639.841 248.472 638.72 248.674C600.459 253.758 584.16 283.304 590.878 319.62C604.337 392.379 635.366 518.38 696.995 564.75ZM575.913 156.882C569.654 144.658 563.495 138.933 549.181 138.189C536.208 139.834 528.928 144.775 523.905 156.913L526.236 157.2C529.139 157.545 545.675 157.278 549.75 157.241C557.189 157.201 568.999 157.558 575.913 156.882ZM552.586 589.378C546.672 586.168 533.601 578.304 528.312 575.997C514.88 605.844 498.978 635.345 485.546 665.065C492.182 668.118 501.826 674.577 509.125 678.306C519.253 657.361 530.708 636.619 540.312 615.33C543.629 607.978 550.015 596.488 552.586 589.378ZM196.709 424.445C188.308 428.506 185.254 435.496 189.753 444.406C190.508 445.901 191.589 447.422 192.984 448.415C203.851 454.862 215.373 461.124 226.505 467.122C226.819 467.291 227.327 466.868 227.544 466.714C230.751 460.689 234.336 452.254 237.588 445.711C228.614 441.185 205.046 424.061 196.709 424.445Z"/></svg>