<?xml version="1.0" encoding="utf-8" ?><svg xmlns="http://www.w3.org/2000/svg" xmlns:xlink="http://www.w3.org/1999/xlink" width="1157" height="1125" viewBox="0 0 1157 1125"><clipPath id="cl_3"><rect x="-0.00036621094" y="0.00012207031" width="1156.9814" height="1124.5048"/></clipPath><g clip-path="url(#cl_3)"><path fill="#FFFFFF" transform="matrix(2.02979 0 0 2.02979 -462.793 -468.882)" d="M525.942 319.196C532.299 319.038 537.051 321.369 541.083 326.372C553.069 341.241 558.316 361.679 557.218 380.514C555.409 411.56 535.166 433.887 512.832 453.333C516.052 466.223 519.248 483.233 521.594 496.42C528.638 495.807 534.805 496.016 541.59 498.141C554.51 502.172 565.238 511.279 571.313 523.373C577.759 536.168 578.852 551.001 574.352 564.603C568.612 582.069 558.156 592.201 542.143 600.281C545.494 623.017 556.134 651.151 544.885 673.38C540.436 682.275 532.572 688.986 523.089 691.983C496.134 700.705 459.852 682.069 472.974 648.15C474.816 643.39 481.122 639.446 486.043 637.92L486.744 637.709C516.312 633.958 519.204 672.707 492.308 676.285C501.773 691.144 526.102 685.976 534.674 672.127C547.378 651.603 538.855 625.451 534.595 603.011C504.766 611.4 474.346 603.051 454.892 578.316C441.745 561.6 437.456 541.89 440.099 520.975C444.857 483.326 472.498 456.678 501.161 434.795C499.915 428.483 498.761 422.152 497.7 415.806C493.292 388.209 492.477 353.433 509.682 330.069C513.934 324.294 518.647 320.33 525.942 319.196ZM533.247 595.628C530.101 582.41 527.422 567.514 524.859 554.106C522.261 542.175 520.102 529.381 517.258 517.675C508.221 520.997 501.436 525.665 497.247 534.71C493.997 541.799 493.673 549.883 496.346 557.21C499.11 564.66 503.719 568.903 509.465 574.066C500.265 572.033 492.267 566.389 487.268 558.402C482.099 550.025 480.933 538.769 483.353 529.354C487.488 513.267 498.685 503.568 513.628 498.041C512.657 493.148 507.343 463.341 505.686 460.42C482.405 478.667 459.761 502.336 455.902 533.092C453.924 548.46 458.182 563.981 467.726 576.188C483.402 595.936 509.448 602.687 533.247 595.628ZM508.63 428.008C510.865 426.109 513.125 424.28 515.17 422.182C530.894 406.948 545.876 387.526 546.113 364.691C546.222 354.224 542.904 339.632 530.346 338.646C524.427 339.776 518.978 344.585 515.933 349.568C501.769 372.756 502.228 396.755 507.268 422.046C507.665 424.046 508.119 426.034 508.63 428.008ZM540.812 592.46C546.584 588.764 549.152 587.136 553.864 582.318C556.524 579.085 558.438 576.714 560.184 572.901C571.934 547.238 554.578 515.629 525.274 516.381C529.28 538.873 534.367 561.338 538.813 583.768C539.361 586.531 539.986 589.78 540.812 592.46Z"/><path fill="#FFFFFF" transform="matrix(2.02979 0 0 2.02979 -462.793 -468.882)" d="M501.3 243.222C534.131 242.472 563.682 246.271 594.837 257.135C659.072 279.694 711.672 326.914 741.004 388.351C751.603 410.64 759.089 434.279 763.251 458.605C763.977 462.629 765.694 470.434 764.425 474.069C762.673 475.777 761.538 476.14 759.04 476.189C751.264 476.343 751.565 461.679 750.203 455.309C748.567 447.515 746.642 439.785 744.432 432.134C734.094 395.895 715.457 362.562 689.997 334.777C646.132 286.001 585.829 258.821 520.625 255.426C501.387 254.281 476.838 256.801 458.086 260.926C373.787 279.873 305.655 341.74 278.69 423.826C275.087 435.178 272.149 446.73 269.891 458.424C268.873 463.462 269.221 469.552 266.895 473.965C265.003 477.554 255.571 476.847 255.797 471.966C256.132 464.697 257.592 457.087 258.966 449.906C268.175 404.095 289.634 361.639 321.057 327.054C360.846 282.684 415.029 253.793 474.045 245.48C483.442 244.134 491.804 243.727 501.3 243.222Z"/><path fill="#FFFFFF" transform="matrix(2.02979 0 0 2.02979 -462.793 -468.882)" d="M259.557 544.539L260.491 544.503C265.597 544.352 267.287 545.27 268.458 550.588C271.452 564.192 274.366 577.78 278.908 590.983C291.905 628.398 313.53 662.227 342.032 689.731C388.74 734.629 451.344 759.179 516.121 757.997C625.688 755.835 720.524 676.988 747.159 573.163C748.84 569.483 751.975 547.187 753.816 546.311C767.678 539.717 764.305 553.332 763.423 558.114C750.926 618.975 721.836 671.41 673.5 711.196C621.21 754.614 553.745 775.348 486.096 768.79C417.643 762.281 354.699 728.466 311.48 674.983C286.253 643.947 268.491 607.532 259.565 568.545C258.355 563.271 255.747 552.419 256.256 547.356C256.991 545.729 257.976 545.427 259.557 544.539Z"/><path fill="#FFFFFF" transform="matrix(2.02979 0 0 2.02979 -462.793 -468.882)" d="M256.059 494.222C264.953 491.966 273.992 497.344 276.254 506.236C278.516 515.129 273.145 524.172 264.254 526.44C255.354 528.71 246.3 523.332 244.036 514.431C241.772 505.53 247.156 496.48 256.059 494.222Z"/><path fill="#FFFFFF" transform="matrix(2.02979 0 0 2.02979 -462.793 -468.882)" d="M757.178 494.155C766.041 492.319 774.732 497.956 776.669 506.798C778.606 515.64 773.068 524.394 764.248 526.431C758.454 527.77 752.387 525.89 748.363 521.511C744.34 517.131 742.98 510.927 744.805 505.266C746.629 499.605 751.354 495.362 757.178 494.155Z"/></g></svg>