<svg xmlns="http://www.w3.org/2000/svg" viewBox="0 0 48 48" fill="none">
  <!-- Open book: left page -->
  <path d="M24 10C18 8 10 8 6 10V40C10 38 18 38 24 40V10Z" stroke="#7A5C2E" stroke-width="2" stroke-linecap="round" stroke-linejoin="round"/>
  <!-- Open book: right page -->
  <path d="M24 10C30 8 38 8 42 10V40C38 38 30 38 24 40V10Z" stroke="#7A5C2E" stroke-width="2" stroke-linecap="round" stroke-linejoin="round"/>
  <!-- Lines on left page (staff-like) -->
  <line x1="10" y1="18" x2="20" y2="17.5" stroke="#7A5C2E" stroke-width="1"   opacity="0.55"/>
  <line x1="10" y1="22" x2="20" y2="21.5" stroke="#7A5C2E" stroke-width="1"   opacity="0.55"/>
  <line x1="10" y1="26" x2="20" y2="25.5" stroke="#7A5C2E" stroke-width="1"   opacity="0.55"/>
  <!-- Music note on right page -->
  <ellipse cx="33" cy="30" rx="5" ry="3.5" transform="rotate(-15 33 30)" fill="#7A5C2E"/>
  <line x1="37.5" y1="27.5" x2="37.5" y2="17" stroke="#7A5C2E" stroke-width="2" stroke-linecap="round"/>
  <!-- Eighth-note flag -->
  <path d="M37.5 17C41 18.5 42 22 39 24" stroke="#7A5C2E" stroke-width="1.5" stroke-linecap="round" fill="none"/>
</svg>
